<svg xmlns="http://www.w3.org/2000/svg"  viewBox="0 0 126.908 145.096">
  <path id="Caminho_11" data-name="Caminho 11" d="M351.406-167.628v-6.2q0-60.206,0-120.41c0-7.3-2.17-9.49-9.4-9.492q-44.773-.014-89.549,0c-8.073,0-9.8,1.754-9.8,9.961q-.008,60.205,0,120.41v5.655c-9.7.85-9.71.862-8.7,9.066h126.04C361.031-166.847,360.926-166.964,351.406-167.628ZM305.818-277.166c0-8.551,0-8.551,10.146-8.546,8.426.005,8.436.015,8.436,9.245,0,9.341,0,9.341-9.357,9.34C305.813-267.128,305.813-267.128,305.818-277.166Zm-36.077.584c0-1.318-.015-2.636.006-3.953.013-.821-.224-1.853.173-2.428,3.747-5.419,9.32-2.012,14.032-2.492,1.16-.118,2.669,2.783,3.923,4.372.242.306.051.961.047,1.455-.1,12.993,1.9,12.636-13.042,12.5-3.665-.034-5.516-1.675-5.159-5.5a18.227,18.227,0,0,0,.056-1.971C269.766-275.262,269.741-275.923,269.741-276.582Zm18.185,28.145c-.005,8.423-.005,8.423-10.631,8.412-7.555-.008-7.555-.008-7.555-9.435,0-8.986,0-8.986,9.059-8.985C287.931-258.445,287.931-258.445,287.926-248.437Zm-9.792,35.6c-8.394,0-8.394,0-8.394-9.54,0-8.675,0-8.675,10.188-8.671,8.006,0,8.006,0,8,9.963C287.919-212.827,287.919-212.827,278.134-212.833Zm28.04,45.256H287.783c0-8,0-15.886,0-23.77a1.035,1.035,0,0,1,.069-.489c3.212-5.66,8.6-2.606,12.992-2.887,1.689-.108,4.992,2.312,5.086,3.744C306.443-183.275,306.174-175.519,306.174-167.577Zm17.442-47.067c-.043.626-1.72,1.313-2.745,1.645a10.307,10.307,0,0,1-2.942.162c-12.3.181-12.17.18-12.177-11.909,0-4.594,1.518-6.889,6.342-6.318a29.716,29.716,0,0,0,3.456.02l.344-.909c2.711,1.054,7.412,1.673,7.756,3.244C324.63-224.225,323.941-219.347,323.616-214.644Zm.784-33.388c-.006,8.007-.006,8.007-9.561,8.007-9.024,0-9.024,0-9.021-9.577,0-8.851,0-8.851,9.85-8.843C324.407-258.438,324.407-258.438,324.4-248.032Z" transform="translate(-233.52 303.735)"/>
</svg>
