<svg xmlns="http://www.w3.org/2000/svg"  viewBox="0 0 180 180">
  <path id="Caminho_16" data-name="Caminho 16" d="M1471.154-254c-7.327-7.166-14.718-14.266-21.969-21.508q-56.681-56.617-113.293-113.3c-1.372-1.373-2.6-2.892-3.892-4.343v-4.154c1.439-1.621,2.805-3.314,4.328-4.851q10.665-10.761,21.414-21.439c3.579-3.539,7.3-6.939,10.95-10.4h4.154c1.615,1.455,3.3,2.84,4.836,4.375q65.359,65.318,130.682,130.672c1.29,1.291,2.427,2.735,3.636,4.107v4.154c-3.7,3.9-7.314,7.894-11.132,11.679-8.465,8.394-17.034,16.682-25.56,25.013Zm-97.887-115.5c2.079-2.279,4.126-4.6,6.259-6.838,1.943-2.039,4.263-2.6,6.376-.492s1.553,4.433-.491,6.37c-2.249,2.13-4.585,4.168-6.864,6.228l8.92,9.061c3.575-3.722,7.088-7.362,10.579-11.023,1.982-2.078,4.154-3.061,6.638-.931,2.062,1.767,1.743,4.284-.848,6.871-3.572,3.568-7.217,7.062-10.6,10.363l8.416,8.9c2.184-2.274,4.2-4.482,6.338-6.572,2.42-2.371,4.907-2.6,6.62-.6,1.954,2.29,1.335,4.475-.654,6.419-2.2,2.148-4.43,4.261-6.105,5.869l8.312,9.011c3.517-3.614,7.005-7.284,10.592-10.854,2.448-2.437,4.909-2.7,6.622-.709,2.085,2.429,1.272,4.649-.827,6.668-3.651,3.51-7.274,7.05-10.792,10.465l8.916,9.129c1.94-2.222,3.815-4.557,5.891-6.695,2.377-2.448,4.877-2.692,6.605-.7,2.111,2.431,1.32,4.715-.807,6.664-2.2,2.013-4.494,3.914-6.429,5.588l8.4,9.085c.927-.875,1.693-1.568,2.424-2.294,3.11-3.089,6.155-6.245,9.334-9.26,1.85-1.754,4.066-1.867,5.87-.023s1.593,3.976-.082,5.9c-.755.869-1.612,1.649-2.425,2.467-3.047,3.067-6.1,6.133-8.918,8.973l8.364,8.9c2.247-2.428,4.317-4.724,6.454-6.956,1.962-2.049,4.276-2.558,6.374-.451,2.119,2.129,1.53,4.459-.543,6.358-2.278,2.088-4.676,4.044-6.634,5.725l8.645,8.818,22.843-22.663L1371-417.8l-22.942,22.453,11.17,11.018c3-3.1,6.262-6.52,9.581-9.882,2.928-2.967,5.5-3.419,7.412-1.411s1.516,4.272-1.424,7.146c-3.447,3.37-6.983,6.65-10.549,10.035Z" transform="translate(-1332 434)"/>
</svg>
