<svg xmlns="http://www.w3.org/2000/svg"  viewBox="0 0 159.559 199.429">
  <g id="Grupo_1" data-name="Grupo 1" transform="translate(-522.667 431.429)">
    <path id="Caminho_1" data-name="Caminho 1" d="M642.964-300.781c0-1.812.046-3.625-.009-5.435a5.925,5.925,0,0,0-5.931-5.928,5.878,5.878,0,0,0-5.725,5.916q-.078,5.337,0,10.676a5.815,5.815,0,0,0,5.713,5.9,5.874,5.874,0,0,0,5.943-5.892C643.01-297.285,642.964-299.034,642.964-300.781Zm27.264-.051c0-1.812.049-3.625-.011-5.435a5.929,5.929,0,0,0-5.785-5.877,5.89,5.89,0,0,0-5.87,5.968c-.048,3.493-.041,6.988,0,10.482a5.831,5.831,0,0,0,5.769,6.046,5.877,5.877,0,0,0,5.893-5.943C670.27-297.337,670.229-299.085,670.228-300.832Zm-82.08-.1c0-1.818.055-3.637-.012-5.452a5.809,5.809,0,0,0-5.5-5.75,5.61,5.61,0,0,0-5.973,4.991,92.716,92.716,0,0,0,.028,12.628,5.538,5.538,0,0,0,6.051,4.862,5.759,5.759,0,0,0,5.389-5.634C588.207-297.17,588.144-299.054,588.148-300.936Zm27.264.17c0-1.882.057-3.766-.013-5.646a5.8,5.8,0,0,0-5.524-5.727,5.545,5.545,0,0,0-5.9,4.827,91.209,91.209,0,0,0-.008,12.816,5.523,5.523,0,0,0,6.067,4.837,5.763,5.763,0,0,0,5.366-5.656C615.47-297.129,615.41-298.949,615.412-300.766Zm15.878,31.4c0,1.882-.05,3.765.012,5.645a5.753,5.753,0,0,0,5.727,5.688,5.711,5.711,0,0,0,5.9-5.515c.13-3.759.119-7.528.006-11.288a5.727,5.727,0,0,0-5.826-5.6,5.783,5.783,0,0,0-5.809,5.813C631.249-272.87,631.289-271.117,631.29-269.365Zm27.262.081c0,1.817-.039,3.635.009,5.45a5.765,5.765,0,0,0,5.618,5.8,5.727,5.727,0,0,0,6.017-5.593c.115-3.759.123-7.529-.008-11.288a5.713,5.713,0,0,0-5.9-5.517,5.777,5.777,0,0,0-5.723,5.7C658.506-272.919,658.555-271.1,658.552-269.284Zm-70.412.009c0-1.881.071-3.765-.016-5.642a5.678,5.678,0,0,0-5.289-5.494c-3.03-.238-5.885,1.664-6.118,4.728a88.581,88.581,0,0,0-.026,12.806c.214,3.076,2.992,5,6.043,4.835a5.7,5.7,0,0,0,5.4-5.592C588.209-265.511,588.145-267.395,588.14-269.275Zm27.271.124c0-1.881.06-3.764-.014-5.642a5.693,5.693,0,0,0-5.367-5.625,5.515,5.515,0,0,0-6.119,4.991,91.888,91.888,0,0,0,.01,12.429c.22,3.166,3.022,5.153,6.147,4.951A5.711,5.711,0,0,0,615.4-263.7C615.469-265.517,615.413-267.335,615.411-269.151Z" fill="#fff"/>
    <path id="Caminho_2" data-name="Caminho 2" d="M527.3-232c-3.456-1.293-4.64-3.839-4.637-7.444q.078-84.219.041-168.439c0-11.339,6.926-20.338,17.651-22.9a23.642,23.642,0,0,1,5.389-.612q30.183-.063,60.366-.02a22.753,22.753,0,0,1,23.109,22.867c.069,4.213.011,8.428.011,12.532,3.865,1.036,7.724,1.7,11.3,3.088,19.423,7.543,30.559,21.761,33.622,42.359a3.18,3.18,0,0,0,1.191,1.949c5.48,3.735,7.973,9.79,6.428,15.872a14.532,14.532,0,0,1-13.117,10.974c-.644.064-1.3.088-1.944.088q-43.326.006-86.653,0c-7.226,0-12.8-3.831-14.842-10.074a14.4,14.4,0,0,1,5.843-16.56,3.327,3.327,0,0,0,1.62-2.6q4.977-32.244,35.866-42.84a39.091,39.091,0,0,1,4.328-1.105c1.454-.321,2.925-.559,4.5-.854a8.611,8.611,0,0,0,.167-1.271c-.045-4.41.159-8.845-.238-13.224a10.505,10.505,0,0,0-10.406-9.481q-30.961-.107-61.923.008c-5.744.025-10.228,4.767-10.563,10.691-.044.777-.023,1.557-.023,2.336q0,83.538.05,167.076c0,3.589-1.057,6.146-4.409,7.582ZM662.148-350.843c-2.071-17.227-18.413-34.93-41.608-33.336a38.139,38.139,0,0,0-27.418,14.107,37.765,37.765,0,0,0-8.642,19.229ZM623.431-339.1H580.815c-.584,0-1.172-.033-1.751.019a2.72,2.72,0,0,0-2.793,2.674,2.77,2.77,0,0,0,2.673,2.992,10.1,10.1,0,0,0,1.36.044q43.1,0,86.2,0a8.055,8.055,0,0,0,1.737-.141,2.635,2.635,0,0,0,2.25-2.772,2.7,2.7,0,0,0-2.507-2.762,12.433,12.433,0,0,0-1.942-.049Q644.739-339.1,623.431-339.1Z"/>
    <path id="Caminho_3" data-name="Caminho 3" d="M642.964-300.781c0,1.747.046,3.5-.009,5.241a5.874,5.874,0,0,1-5.943,5.892,5.815,5.815,0,0,1-5.713-5.9q-.077-5.337,0-10.676a5.878,5.878,0,0,1,5.725-5.916,5.925,5.925,0,0,1,5.931,5.928C643.01-304.406,642.964-302.593,642.964-300.781Z"/>
    <path id="Caminho_4" data-name="Caminho 4" d="M670.228-300.832c0,1.747.042,3.495-.007,5.241a5.877,5.877,0,0,1-5.893,5.943,5.831,5.831,0,0,1-5.769-6.046c-.038-3.494-.045-6.989,0-10.482a5.89,5.89,0,0,1,5.87-5.968,5.929,5.929,0,0,1,5.785,5.877C670.277-304.457,670.228-302.644,670.228-300.832Z"/>
    <path id="Caminho_5" data-name="Caminho 5" d="M588.146-300.936c0,1.882.061,3.766-.016,5.645a5.759,5.759,0,0,1-5.389,5.634,5.538,5.538,0,0,1-6.051-4.862,92.716,92.716,0,0,1-.028-12.628,5.61,5.61,0,0,1,5.973-4.991,5.809,5.809,0,0,1,5.5,5.75C588.2-304.573,588.148-302.754,588.146-300.936Z"/>
    <path id="Caminho_6" data-name="Caminho 6" d="M615.411-300.766c0,1.817.059,3.637-.015,5.451a5.763,5.763,0,0,1-5.366,5.656,5.523,5.523,0,0,1-6.067-4.837,91.209,91.209,0,0,1,.008-12.816,5.545,5.545,0,0,1,5.9-4.827,5.8,5.8,0,0,1,5.524,5.727C615.469-304.532,615.412-302.648,615.411-300.766Z"/>
    <path id="Caminho_7" data-name="Caminho 7" d="M631.289-269.365c0-1.752-.04-3.505.008-5.255a5.783,5.783,0,0,1,5.809-5.813,5.727,5.727,0,0,1,5.826,5.6c.113,3.76.124,7.529-.006,11.288a5.711,5.711,0,0,1-5.9,5.515,5.753,5.753,0,0,1-5.727-5.688C631.24-265.6,631.29-267.483,631.289-269.365Z"/>
    <path id="Caminho_8" data-name="Caminho 8" d="M658.554-269.284c0-1.817-.048-3.635.012-5.45a5.777,5.777,0,0,1,5.723-5.7,5.713,5.713,0,0,1,5.9,5.517c.131,3.759.123,7.529.008,11.288a5.727,5.727,0,0,1-6.017,5.593,5.765,5.765,0,0,1-5.618-5.8C658.513-265.649,658.552-267.467,658.554-269.284Z"/>
    <path id="Caminho_9" data-name="Caminho 9" d="M588.143-269.275c0,1.88.066,3.764-.012,5.641a5.7,5.7,0,0,1-5.4,5.592c-3.051.165-5.829-1.759-6.043-4.835a88.581,88.581,0,0,1,.026-12.806c.233-3.064,3.088-4.966,6.118-4.728a5.678,5.678,0,0,1,5.289,5.494C588.211-273.04,588.14-271.156,588.143-269.275Z"/>
    <path id="Caminho_10" data-name="Caminho 10" d="M615.412-269.151c0,1.816.057,3.634-.012,5.447a5.711,5.711,0,0,1-5.332,5.657c-3.125.2-5.927-1.785-6.147-4.951a91.888,91.888,0,0,1-.01-12.429,5.515,5.515,0,0,1,6.119-4.991,5.693,5.693,0,0,1,5.367,5.625C615.471-272.915,615.411-271.032,615.412-269.151Z"/>
  </g>
</svg>
