<svg xmlns="http://www.w3.org/2000/svg" viewBox="0 0 199.271 166.678">
  <path id="Caminho_15" data-name="Caminho 15" d="M1154.173-331.806c-.249-9.853-5.879-16.528-15-20.4a8.5,8.5,0,0,1-4.062-4.292c-5.022-12.438-9.756-24.991-14.647-37.483-4.375-11.175-11.2-15.9-23.128-15.914q-42.556-.059-85.114,0c-11.915.017-18.8,4.774-23.147,15.9-4.882,12.494-9.634,25.039-14.616,37.492-.655,1.637-2.06,3.563-3.587,4.167-10.748,4.254-15.681,12.213-15.7,23.51-.029,13.937-.008,27.874-.009,41.811v10.786h16.026c0,6.552-.364,12.672.085,18.732.678,9.129,6.686,14.372,15.348,14.089,8.287-.27,13.925-6.416,14.063-15.47.086-5.6.016-11.2.016-17.111h108.189c0,6.238-.087,12.173.023,18.105.116,6.215,3.036,10.779,8.744,13.3,9.169,4.047,19.367-1.461,20.377-11.438.66-6.519.124-13.16.124-20.2h15.568a7.9,7.9,0,0,0,.588-1.829C1154.32-295.976,1154.625-313.9,1154.173-331.806Zm-167.7,23.372c-7.576.04-13.938-6.59-13.908-14.494A13.922,13.922,0,0,1,986.62-337.1a14.159,14.159,0,0,1,13.756,14.073C1000.444-315.251,993.988-308.473,986.473-308.434Zm4.086-44.878a18.922,18.922,0,0,1,.576-3.268c3.761-10.257,7.628-20.476,11.359-30.745,1.869-5.143,5.157-7.548,10.85-7.515q41.55.244,83.1.018c4.948-.021,8.383,1.8,10.116,6.37,4.168,10.987,8.217,22.02,12.273,33.05a6.881,6.881,0,0,1,.027,2.09Zm132.857,44.879c-7.47.205-14.133-6.463-14.245-14.255a14.119,14.119,0,0,1,13.912-14.412,13.93,13.93,0,0,1,13.907,14.33A14.307,14.307,0,0,1,1123.416-308.433Z" transform="translate(-955.149 409.928)"/>
</svg>
