<svg version="1.1" id="Camada_1" xmlns="http://www.w3.org/2000/svg" xmlns:xlink="http://www.w3.org/1999/xlink" x="0px" y="0px"
	 viewBox="0 0 302 177.3" style="enable-background:new 0 0 302 177.3;" xml:space="preserve">

<g>
	<path d="M150,79.2c-4.7,0-9.3,0.1-14,0c-12.8-0.4-22.7-10.1-23-22.8c-0.2-9.6-0.2-19.3,0-28.9c0.3-12.8,10-22.7,22.8-23.1
		c9.6-0.3,19.3-0.3,28.9,0c12.9,0.4,22.7,10,23.1,22.9c0.3,9.8,0.4,19.6,0,29.4c-0.5,12.9-10.5,22.3-23.3,22.6
		C159.6,79.3,154.8,79.2,150,79.2z M150,70.1c4.5,0,9,0.1,13.5,0c8.7-0.1,14.7-5.4,15-14c0.4-9.5,0.3-19,0-28.5
		c-0.3-8-5.6-13.6-13.6-13.9c-9.8-0.4-19.6-0.4-29.4,0c-7.9,0.4-13.2,6.2-13.3,14.1c-0.2,9.3-0.2,18.6,0,28
		c0.2,8.2,6.1,14,14.3,14.2C141,70.2,145.5,70,150,70.1z"/>
	<path d="M245,79.2c-4.7,0-9.3,0.1-14,0c-12.8-0.4-22.7-10.1-23-22.8c-0.2-9.6-0.2-19.3,0-28.9c0.3-12.8,10-22.7,22.8-23.1
		c9.6-0.3,19.3-0.3,28.9,0c12.9,0.4,22.7,10,23.1,22.9c0.3,9.8,0.4,19.6,0,29.4c-0.5,12.9-10.5,22.3-23.3,22.6
		C254.6,79.3,249.8,79.2,245,79.2z M245,70.1c4.5,0,9,0.1,13.5,0c8.7-0.1,14.7-5.4,15-14c0.4-9.5,0.3-19,0-28.5
		c-0.3-8-5.6-13.6-13.6-13.9c-9.8-0.4-19.6-0.4-29.4,0c-7.9,0.4-13.2,6.2-13.3,14.1c-0.2,9.3-0.2,18.6,0,28
		c0.2,8.2,6.1,14,14.3,14.2C236,70.2,240.5,70,245,70.1z"/>
	<path d="M245,173.2c-4.7,0-9.3,0.1-14,0c-12.8-0.4-22.7-10.1-23-22.8c-0.2-9.6-0.2-19.3,0-28.9c0.3-12.8,10-22.7,22.8-23.1
		c9.6-0.3,19.3-0.3,28.9,0c12.9,0.4,22.7,10,23.1,22.9c0.3,9.8,0.4,19.6,0,29.4c-0.5,12.9-10.5,22.3-23.3,22.6
		C254.6,173.2,249.8,173.2,245,173.2z M245,164c4.5,0,9,0.1,13.5,0c8.7-0.1,14.7-5.4,15-14c0.4-9.5,0.3-19,0-28.5
		c-0.3-8-5.6-13.6-13.6-13.9c-9.8-0.4-19.6-0.4-29.4,0c-7.9,0.4-13.2,6.2-13.3,14.1c-0.2,9.3-0.2,18.6,0,28
		c0.2,8.2,6.1,14,14.3,14.2C236,164.1,240.5,164,245,164z"/>
	<path d="M56.7,79.2c-4.7,0-9.3,0.1-14,0c-13.3-0.3-23.3-10-23.6-23.4c-0.2-9.3-0.2-18.6,0-27.9C19.4,14.6,29.2,4.6,42.5,4.3
		c9.5-0.2,19-0.2,28.4,0C84,4.7,93.8,14.7,94,27.7c0.2,9.3,0.1,18.6,0,27.9c-0.2,13.4-10,23.2-23.3,23.5
		C66,79.3,61.4,79.2,56.7,79.2z M84.8,42c0-4.5,0.1-9,0-13.5C84.7,20,79.5,14,71.1,13.7c-9.6-0.4-19.3-0.4-28.9,0
		c-7.8,0.3-13.3,5.6-13.6,13.3c-0.4,10-0.4,20,0,29.9c0.4,7.8,6.3,13,14.3,13.1c9.2,0.1,18.3,0.2,27.5,0c8.5-0.1,14.3-6.1,14.5-14.6
		C84.9,50.9,84.8,46.5,84.8,42z"/>
	<path d="M56.8,98.1c4.8,0,9.7-0.1,14.5,0c12.6,0.4,22.4,10.1,22.7,22.6c0.2,9.8,0.3,19.6,0,29.4c-0.3,12.7-10.2,22.4-23.1,22.8
		c-9.5,0.2-19,0.2-28.4,0c-13.3-0.3-23.1-10.4-23.3-23.7c-0.1-9.1-0.1-18.3,0-27.4c0.2-13.6,10.2-23.5,23.7-23.7
		C47.5,98,52.2,98.1,56.8,98.1C56.8,98.1,56.8,98.1,56.8,98.1z M56.8,107.3c-4.5,0-9-0.1-13.5,0c-8.7,0.2-14.6,5.5-14.9,14.2
		c-0.3,9.5-0.3,19,0,28.5c0.3,8,5.7,13.4,13.7,13.7c9.6,0.4,19.3,0.4,28.9,0c8.2-0.3,13.5-6.2,13.7-14.3c0.2-9.2,0.2-18.3,0-27.5
		c-0.1-8.5-6-14.3-14.5-14.6C65.8,107.2,61.3,107.3,56.8,107.3z"/>
	<path d="M112.9,135.6c0-4.8-0.1-9.7,0-14.5c0.4-12.8,10.1-22.6,22.9-22.9c9.5-0.2,19-0.2,28.4,0c13.1,0.2,23.1,9.8,23.5,22.9
		c0.3,9.6,0.3,19.3,0,28.9c-0.4,13.1-10.3,22.7-23.5,23c-9.3,0.2-18.6,0.2-27.9,0c-13.6-0.3-23.3-10.3-23.5-24
		C112.9,144.5,112.9,140.1,112.9,135.6z M122.1,135.2c0,4.5-0.1,9,0,13.5c0.1,8.7,5.4,14.7,14,15c9.5,0.4,19,0.3,28.5,0
		c8-0.3,13.5-5.6,13.9-13.6c0.4-9.6,0.4-19.3,0-28.9c-0.3-8.4-6.3-13.7-14.7-13.8c-9-0.1-18-0.1-27,0c-8.8,0.1-14.5,6.1-14.7,14.9
		C122,126.5,122.1,130.9,122.1,135.2z"/>
	<path  d="M150,70c-4.5,0-9,0.1-13.5,0c-8.2-0.3-14.2-6-14.3-14.2c-0.2-9.3-0.2-18.6,0-28c0.1-7.9,5.4-13.7,13.3-14.1
		c9.8-0.5,19.6-0.4,29.4,0c8,0.3,13.3,5.8,13.6,13.9c0.3,9.5,0.4,19,0,28.5c-0.3,8.6-6.3,13.9-15,14C159,70.1,154.5,70.1,150,70z"/>
	<path  d="M56.8,107.3c4.5,0,9-0.1,13.5,0c8.5,0.2,14.4,6.1,14.5,14.6c0.1,9.2,0.2,18.3,0,27.5
		c-0.1,8.1-5.5,14-13.7,14.3c-9.6,0.4-19.3,0.4-28.9,0c-8-0.3-13.4-5.8-13.7-13.7c-0.4-9.5-0.3-19,0-28.5c0.3-8.6,6.2-14,14.9-14.2
		C47.8,107.2,52.3,107.3,56.8,107.3z"/>
	<path  d="M122.1,135.2c0-4.3-0.1-8.7,0-13c0.2-8.8,6-14.8,14.7-14.9c9-0.1,18-0.1,27,0c8.4,0.1,14.3,5.5,14.7,13.8
		c0.4,9.6,0.4,19.3,0,28.9c-0.3,8-5.8,13.3-13.9,13.6c-9.5,0.3-19,0.4-28.5,0c-8.6-0.3-13.9-6.3-14-15
		C122,144.2,122.1,139.7,122.1,135.2z"/>
</g>
</svg>