<svg xmlns="http://www.w3.org/2000/svg" width="39.491" height="29.819" viewBox="0 0 39.491 29.819">
  <g id="Grupo_2" data-name="Grupo 2" transform="translate(239.427 -1170.359)">
    <path id="Caminho_5" data-name="Caminho 5" d="M-239.427,1179.178c.046-.184.093-.368.138-.552a5.156,5.156,0,0,1,4.989-4c1.632-.021,3.264-.005,4.9-.006h.438a5.088,5.088,0,0,1,.991-2.208,4.832,4.832,0,0,1,3.779-2.02c2.967-.051,5.936-.045,8.9-.008a5.122,5.122,0,0,1,4.79,3.845c.031.122.064.243.1.376h1.032c0-.232-.006-.458,0-.684a.8.8,0,0,1,.84-.9c.9-.023,1.8-.021,2.7,0,.488.012.708.266.731.763.012.266,0,.533,0,.82a5.338,5.338,0,0,1,2.7.8,4.893,4.893,0,0,1,2.435,4.221q.057,7.768,0,15.538a5.113,5.113,0,0,1-4.94,5c-.154.005-.308.01-.462.01q-14.322,0-28.642.005a5.23,5.23,0,0,1-4.455-2.169,4.935,4.935,0,0,1-.889-2.109c-.018-.1-.052-.2-.078-.294Zm12.086-2.845h-.463c-2.056,0-4.112-.006-6.168.006a4.345,4.345,0,0,0-1.1.125,3.417,3.417,0,0,0-2.64,3.486q-.012,7.461,0,14.923a3.736,3.736,0,0,0,.128.988,3.421,3.421,0,0,0,3.48,2.6q14.418.006,28.837,0a3.447,3.447,0,0,0,3.605-3.55c.021-5,.012-10,0-15a3.431,3.431,0,0,0-1.393-2.868,3.7,3.7,0,0,0-2.312-.708q-3.123,0-6.246,0h-.424c-.013-.147-.019-.247-.03-.347a8.6,8.6,0,0,0-.186-1.525,3.384,3.384,0,0,0-3.331-2.378c-1.516-.012-3.033,0-4.549,0-1.221,0-2.442.007-3.663,0a3.371,3.371,0,0,0-3.464,3.3A6.477,6.477,0,0,1-227.341,1176.333Z"/>
    <path id="Caminho_6" data-name="Caminho 6" d="M-219.683,1196.982a9.73,9.73,0,0,1-9.692-9.69,9.708,9.708,0,0,1,9.685-9.684,9.716,9.716,0,0,1,9.694,9.677A9.735,9.735,0,0,1-219.683,1196.982Zm8.066-9.687a8.085,8.085,0,0,0-8.065-8.066,8.087,8.087,0,0,0-8.075,8.057,8.115,8.115,0,0,0,8.066,8.078A8.114,8.114,0,0,0-211.617,1187.3Z"/>
    <path id="Caminho_7" data-name="Caminho 7" d="M-219.725,1175.946h-4.856a2.043,2.043,0,0,1-.384-.016.586.586,0,0,1-.524-.576.58.58,0,0,1,.467-.656,1.888,1.888,0,0,1,.457-.047q4.816,0,9.634,0a2.413,2.413,0,0,1,.269.006.67.67,0,0,1,.673.656.651.651,0,0,1-.727.632C-216.386,1175.949-218.056,1175.945-219.725,1175.946Z"/>
    <path id="Caminho_8" data-name="Caminho 8" d="M-219.326,1180.938c.128,0,.257-.009.384,0a.484.484,0,0,1,.495.488.473.473,0,0,1-.424.548c-.34.055-.689.062-1.029.117a5.8,5.8,0,0,0-4.879,5.494,1.72,1.72,0,0,1-.019.269c-.058.317-.233.525-.574.5a.511.511,0,0,1-.49-.578,6.809,6.809,0,0,1,.476-2.478A6.928,6.928,0,0,1-219.326,1180.938Z"/>
  </g>
</svg>
