<svg version="1.1" id="Camada_1" xmlns="http://www.w3.org/2000/svg" xmlns:xlink="http://www.w3.org/1999/xlink" x="0px" y="0px"
	 viewBox="0 0 186.8 177.3" style="enable-background:new 0 0 186.8 177.3;" xml:space="preserve">
<g>
	<path d="M175.4,39.8c-3.6,10-7.2,20.1-10.9,30.1c-8.4,22.8-16.8,45.6-25.4,68.3c-2,5.1-4.6,10.1-7.5,14.8
		c-10.1,16.5-27.9,22.3-45.7,14.6c-18.8-8.1-37.4-16.6-55.9-25.2c-12-5.6-18.8-19.3-17.3-33.5c0.2-1.4,0.4-2.9,0.7-4.8
		c4.6,1.8,9,3.5,13.4,5.3c18.1,7.3,36.1,14.6,54.2,21.9c2.2,0.9,3.3,1.8,3.5,4.5c0.3,3.8,1.2,7.6,2.7,11.2
		c5,12.4,19.9,15.3,29.2,5.6c3.1-3.3,5.9-7.2,7.6-11.3c6.9-16.6,13.5-33.4,19.9-50.3c5.6-14.8,10.8-29.8,16.1-44.8
		c0.4-1,0.6-2,1.1-3.6C134.5,35.9,108,29.1,81,22.2c-11.1,28.2-22.1,56.4-33.3,84.9c-3.8-1.4-7.5-2.7-11.5-4.1
		c0.9-2.5,1.7-4.7,2.5-6.9c10.6-26.8,21.2-53.7,31.8-80.5c2.2-5.7,4.1-6.7,9.9-5.3c29.3,7.1,58.7,14.2,88,21.2
		c3.1,0.7,5.6,2,7.1,4.9C175.4,37.4,175.4,38.6,175.4,39.8z"/>
	<path d="M96.2,75.6c0.4,0.1,0.7,0.1,1.1,0.2c9.6,3.4,19.3,6.7,28.8,10.4c2.8,1.1,3.8,4.6,2.8,7.4c-1.1,2.9-4.3,4.8-7.3,3.7
		c-9.3-3.2-18.6-6.5-27.9-9.9c-3.1-1.2-4.3-3.9-3.6-7.1C90.9,77.3,93.1,75.8,96.2,75.6z"/>
	<path d="M112.9,123.8c-0.7-0.2-1.4-0.3-2.1-0.6c-8.8-3.1-17.7-6.1-26.4-9.5c-1.8-0.7-3.8-2.8-4.3-4.7c-1.3-4.4,2.8-8.4,7.3-6.9
		c9.6,3,19.1,6.5,28.5,10.1c3,1.1,4.1,4.2,2.9,6.9c-0.9,2.1-3.3,3.6-5,5.4C113.4,124.2,113.1,124,112.9,123.8z"/>
	<path d="M141,64.2c-0.8,4.7-4.4,7.8-8.4,6.6c-9.2-2.7-18.4-5.6-27.5-8.5c-3.3-1.1-4.9-4.4-4.1-7.4c0.9-3.2,3.9-5.2,7.3-4.3
		c9.4,2.7,18.9,5.6,28.1,8.8C138.3,60,139.5,62.5,141,64.2z"/>
	<path d="M86.7,43.3c4-0.1,7,2.8,7,6.6c0,3.6-2.9,6.5-6.7,6.6c-3.9,0.1-7.1-2.9-7.1-6.6C79.9,46.3,83,43.4,86.7,43.3z"/>
	<path d="M66.8,107.3c-3.9,0.1-7.1-2.9-7.1-6.6c0-3.5,3.1-6.5,6.8-6.6c3.9-0.1,7,2.9,7,6.6C73.4,104.4,70.5,107.2,66.8,107.3z"/>
	<path d="M83.9,74.8c0,3.6-2.9,6.6-6.6,6.8c-3.9,0.1-7-2.8-7-6.6c0-3.8,3.1-6.9,6.9-6.8C80.8,68.2,83.8,71.2,83.9,74.8z"/>
</g>
</svg>
