<svg xmlns="http://www.w3.org/2000/svg" width="929.793" height="1197.604" viewBox="0 0 929.793 1197.604">
  <path id="Caminho_9" data-name="Caminho 9" d="M489.5-59.9A465.819,465.819,0,0,0,73.1,279.5C42.6,390.2,53.4,507.3,103.6,609c19.1,38.7,37.2,66,67.6,102,3.4,4.1,75.3,97.6,159.6,207.7,91.8,119.9,155.5,202.2,158.8,205.2,18.6,17,44.2,17,62.8,0,3.3-3,67-85.3,158.8-205.2C795.5,808.6,867.4,715.1,870.8,711c30.4-36,48.5-63.3,67.6-102,56.6-114.7,62.9-250.2,17.4-369.5C920.5,147.2,859.1,70.6,776,15.3,693.5-39.6,589.6-66.8,489.5-59.9Zm55.9,225.4a180.9,180.9,0,0,1,60.1,18c55.3,26.8,93.1,75.6,106.2,137.4,2.5,11.6,2.7,14.5,2.8,36.6,0,26.7-1,34.5-7,55.5-16.1,56.1-58.6,103.2-113,125.3-20.1,8.2-36.5,12-59.2,13.9-29.4,2.5-59.3-2.3-87.8-13.9-54.4-22.1-96.9-69.2-113-125.3-6-21-7-28.8-7-55.5.1-22.1.3-25,2.8-36.6,11.2-52.7,40.6-96.5,84.2-125.2,17.7-11.6,43.7-22.7,63.7-27.1C499.1,164,524.9,162.8,545.4,165.5Z" transform="translate(-56.11 60.954)"/>
</svg>
