<svg xmlns="http://www.w3.org/2000/svg" width="1280" height="824.859" viewBox="0 0 1280 824.859">
  <g id="Grupo_1" data-name="Grupo 1" transform="translate(-11 -67.141)">
    <path id="Caminho_1" data-name="Caminho 1" d="M66.5,67.7C42.2,70.9,21.8,89.2,13.8,115l-2.3,7.5-.3,384.7L11,892H145V697.5l507.5-.3L1160,697l.2,96.7.3,96.8,65.3.3,65.2.2-.2-299.7-.3-299.8-2.8-8.8a109.573,109.573,0,0,0-5.1-13.5c-11.3-22.3-32.7-35.4-57.6-35.4s-46.3,13.1-57.6,35.4a109.573,109.573,0,0,0-5.1,13.5l-2.8,8.8-.3,124.2-.3,124.3H142l-.3-207.3c-.2-187.1-.4-207.8-1.9-213.8-5.2-21.1-17-36.5-34.3-44.9A69.917,69.917,0,0,0,66.5,67.7Z"/>
    <path id="Caminho_2" data-name="Caminho 2" d="M262.6,153.6a117.16,117.16,0,0,0-60.9,31.3c-21.8,20.9-34.1,46.5-36.6,76a118.135,118.135,0,0,0,33.7,93.5C221.6,377.7,251,390,284,390s62.4-12.3,85.2-35.6c18.2-18.5,28.9-40.3,33.3-67.7,1-6.1.7-26.6-.4-33.9a121.847,121.847,0,0,0-64.9-88.7c-8.7-4.4-22.1-8.7-32.6-10.6C293.7,151.6,273.3,151.7,262.6,153.6Z"/>
    <path id="Caminho_3" data-name="Caminho 3" d="M460.3,235a55.893,55.893,0,0,0-40.7,30.5c-7.1,14.5-6.9,12.5-7.3,78.2l-.4,59.2-99.7.3c-111.2.4-103.6-.1-119.2,7.5-9.5,4.6-20.3,15.1-24.8,23.9-15.2,30.2-1.5,64.9,30.5,77,14.2,5.4,11.8,5.3,149.4,5.4,123.9,0,127.8-.1,135.3-2,10.7-2.7,16.9-6.3,25.1-14.5,8-8,12.4-15.6,15.5-26.7,2-7.5,2.1-9,1.8-99.4l-.3-91.9-2.9-8.4c-8.2-23.4-26.2-37.7-49.6-39.4A64.8,64.8,0,0,0,460.3,235Z"/>
    <path id="Caminho_4" data-name="Caminho 4" d="M542.2,376l.3,139H1131V422.6c0-98.7-.1-100.3-5-115.6-12.8-39.7-45.6-64.3-91.9-69-6.8-.6-91.3-1-251.2-1H542Z"/>
  </g>
</svg>
