<svg xmlns="http://www.w3.org/2000/svg" width="446.117" height="388.556" viewBox="0 0 446.117 388.556">
  <g id="Grupo_4" data-name="Grupo 4" transform="translate(-32.941 -61.717)">
    <path id="Caminho_10" data-name="Caminho 10" d="M63.949,233.687H341.6V450.273H63.949V233.687Z"/>
    <path id="Caminho_11" data-name="Caminho 11" d="M192.614,142.224c0,44.278-35.737,80.19-79.852,80.19-44.083,0-79.821-35.911-79.821-80.19C32.941,97.895,68.678,62,112.762,62,156.865,62,192.614,97.895,192.614,142.224Z"/>
    <path id="Caminho_12" data-name="Caminho 12" d="M368.251,141.886c0,44.319-35.748,80.22-79.862,80.22-44.032,0-79.81-35.9-79.81-80.22,0-44.288,35.779-80.169,79.81-80.169A80,80,0,0,1,368.251,141.886Z"/>
    <path id="Caminho_13" data-name="Caminho 13" d="M359.168,289.229h38.9V394.752h-38.9Z"/>
    <path id="Caminho_14" data-name="Caminho 14" d="M415.191,287.826v94.423l63.867,63.856V237.865Z"/>
  </g>
</svg>
